# xmcd CD database file
#
# Track frame offsets:
#	150
#	20849
#	36722
#	61074
#	86664
#	121222
#	140727
#
# Disc length: 2457 seconds
#
# Revision: 2
# Processed by: cddbd v1.5PL3 Copyright (c) Steve Scherf et al.
# Submitted via: CDex 1.50
#
DISCID=64099707
DTITLE=The Cream - Renovating The Blues [CD2]
DYEAR=2004
DGENRE=Psychedelic Rock
TTITLE0=Sunshine Of Your Love
TTITLE1=Hey Lawdy Mama
TTITLE2=Sweet Wine
TTITLE3=Rollin' and Tumblin'
TTITLE4=Spoonful (incomplete
TTITLE5=Sitting On Top Of The World (incomplete
TTITLE6=Toad (incomplete)
EXTD=YEAR: 2004
EXTT0=
EXTT1=
EXTT2=
EXTT3=
EXTT4=
EXTT5=
EXTT6=
PLAYORDER=
